<svg xmlns="http://www.w3.org/2000/svg" viewBox="0 0 24 24" width="512" height="512"><path d="m18.13 7.16-4.24-4.24a3.76 3.76 0 0 0-5.31 0L5.87 5.63a3.76 3.76 0 0 0 0 5.31l2.71 2.7a.75.75 0 0 0 1.06 0l-2.12-2.12a2.25 2.25 0 0 1 0-3.18L10.23 5.6a2.25 2.25 0 0 1 3.18 0l4.24 4.24a2.25 2.25 0 0 1 0 3.18l-2.71 2.7a.75.75 0 1 0 1.06 1.06l2.71-2.7a3.76 3.76 0 0 0 0-5.31Zm-3.65 8.62a.75.75 0 0 0-1.06 0l-2.71 2.7a2.25 2.25 0 0 1-3.18 0L3.29 14.24a2.25 2.25 0 0 1 0-3.18l2.12-2.12a.75.75 0 0 0-1.06-1.06L1.64 10.59a3.76 3.76 0 0 0 0 5.31l4.24 4.24a3.76 3.76 0 0 0 5.31 0l2.71-2.7a.75.75 0 0 0 0-1.06Z"/></svg>